<?xml version="1.0" encoding="utf-8"?>
<!-- Generator: Adobe Illustrator 24.1.0, SVG Export Plug-In . SVG Version: 6.00 Build 0)  -->
<svg version="1.1" id="Layer_1" xmlns="http://www.w3.org/2000/svg" xmlns:xlink="http://www.w3.org/1999/xlink" x="0px" y="0px"
	 viewBox="0 0 227.7 80" style="enable-background:new 0 0 227.7 80;" xml:space="preserve">
<style type="text/css">
	.st0{fill:#FFFFFF;}
	.st1{fill:#CE3047;}
	.st2{opacity:0.201;}
</style>
<g id="Group_577" transform="translate(-174.519 -517.856)">
	<g id="Group_602" transform="translate(174.524 517.87)">
		<g id="Group_595" transform="translate(0 0.314)">
			<path id="Path_354" class="st0" d="M11.9,9.7c-0.7,0.9-1.5,1.7-2.6,2.2c-1,0.5-2.1,0.7-3.2,0.7c-0.2,0-0.5,0-0.7-0.2
				c-0.1-0.1-0.2-0.2-0.2-0.3c0.1-0.6,0.2-1.2,0.4-1.8L8,2.5c0.1-0.6,0.4-1.1,0.8-1.6c0.4-0.3,0.9-0.4,1.4-0.4h0.1L10.3,0H3.7
				L3.6,0.5h0.1c0.4,0,0.8,0.1,1.1,0.3C5,0.9,5.1,1.1,5.1,1.3C5,1.7,5,2.1,4.9,2.4l-2.5,8.7c-0.1,0.6-0.4,1.2-0.8,1.6
				c-0.4,0.3-0.9,0.4-1.4,0.4H0.1L0,13.6h10.9l1.5-3.8l0-0.1L11.9,9.7L11.9,9.7z"/>
		</g>
		<g id="Group_596" transform="translate(13.513 4.574)">
			<path id="Path_355" class="st0" d="M0.8,0.6L0.7,1.1h0.1c0.1,0,0.3,0,0.4,0c0.2,0,0.3,0,0.5,0.2c0.1,0.1,0.2,0.2,0.2,0.3
				c0,0.3-0.1,0.7-0.2,1L0.2,7.3C0.1,7.6,0,8,0,8.3c0,0.4,0.1,0.7,0.4,1c0.3,0.3,0.7,0.4,1.1,0.4c1.1,0,2.2-0.9,3.2-2.6l0-0.1
				L4.3,6.7l0,0.1C4,7.2,3.6,7.6,3.2,8C3.1,8.1,3,8.2,2.9,8.2c-0.1,0-0.1,0-0.1-0.1c0,0-0.1-0.1-0.1-0.2c0-0.3,0.1-0.5,0.2-0.8
				l2-7.1l0-0.1H4.2L0.8,0.6z"/>
		</g>
		<g id="Group_597" transform="translate(16.226)">
			<path id="Path_356" class="st0" d="M1.5,3.1c0.8,0,1.5-0.6,1.6-1.5C3.1,0.7,2.4,0,1.6,0c0,0-0.1,0-0.1,0C1.1,0,0.7,0.2,0.4,0.4
				C-0.1,1-0.1,2,0.4,2.6C0.7,2.9,1.1,3.1,1.5,3.1z"/>
		</g>
		<g id="Group_598" transform="translate(18.738 4.564)">
			<path id="Path_357" class="st0" d="M7.2,0C7.1,0.2,6.9,0.3,6.7,0.3c-0.2,0-0.5,0-0.7-0.1C5.5,0.1,5,0,4.5,0
				C3.6,0,2.8,0.2,2.2,0.7C1.7,1.2,1.4,1.9,1.4,2.6c0,0.4,0.1,0.8,0.3,1.2c0.4,0.7,1,1.4,1.5,2C3.6,6.1,4,6.6,4.3,7.1
				c0.1,0.3,0.2,0.6,0.2,0.9c0,0.3-0.1,0.6-0.3,0.8C3.9,8.9,3.6,9,3.3,9C3,9,2.7,8.9,2.4,8.7C2.1,8.5,1.8,8.3,1.6,7.9
				C1.3,7.4,1.1,6.8,1,6.2l0,0H0.5L0,9.6l0,0.1h0.5l0,0c0.1-0.1,0.2-0.2,0.3-0.3C0.9,9.3,1,9.2,1.1,9.2c0.3,0,0.6,0.1,0.8,0.2
				c0.5,0.1,1,0.2,1.4,0.2c0.6,0,1.2-0.2,1.7-0.4C5.6,8.9,6,8.5,6.3,8c0.3-0.5,0.4-1,0.4-1.5c0-0.5-0.1-1-0.3-1.4
				C5.8,4.3,5.1,3.5,4.4,2.8C4.2,2.6,4,2.3,3.9,2.1C3.8,1.9,3.7,1.7,3.7,1.5C3.7,1.3,3.8,1,4,0.9c0.2-0.2,0.4-0.3,0.7-0.2
				c0.5,0,1,0.3,1.3,0.7c0.4,0.5,0.7,1.2,0.7,1.8v0.1h0.5l0.4-3.1l0-0.1L7.2,0L7.2,0z"/>
		</g>
		<g id="Group_599" transform="translate(27.065 2.145)">
			<path id="Path_358" class="st0" d="M4.2,9.4c-0.3,0.4-0.6,0.9-1.1,1.2c-0.1,0.1-0.2,0.1-0.3,0.1c-0.1,0-0.1,0-0.1-0.1
				c0,0-0.1-0.1-0.1-0.2c0-0.3,0.1-0.5,0.2-0.8L4.4,4h1.3l0.4-1.3H4.8l0.8-2.6l0-0.1H5l0,0C4.3,0.8,3.6,1.4,2.8,2
				C2.2,2.5,1.5,2.9,0.7,3.1l0,0L0.5,4h1.4L0.3,9.3C0.1,9.8,0,10.3,0,10.8c0,0.3,0.1,0.7,0.4,0.9c0.3,0.3,0.7,0.4,1.1,0.4
				c0.6,0,1.2-0.2,1.7-0.6c0.6-0.5,1.2-1.1,1.5-1.8l0-0.1L4.2,9.4L4.2,9.4z"/>
		</g>
		<g id="Group_600" transform="translate(32.78 4.566)">
			<path id="Path_359" class="st0" d="M6.9,0C5.7,0,4.6,0.4,3.6,1C2.5,1.6,1.6,2.5,1,3.6C0.4,4.6,0,5.8,0,6.9c0,0.7,0.2,1.3,0.7,1.9
				C1.3,9.4,2.1,9.7,3,9.6c0.8,0,1.7-0.2,2.4-0.6c0.9-0.5,1.6-1.2,2.2-2l0-0.1L7.3,6.6l0,0c-0.5,0.5-1,0.9-1.6,1.2
				C5.2,8.1,4.8,8.2,4.3,8.2c-0.4,0-0.8-0.1-1.1-0.4C2.9,7.4,2.8,7,2.8,6.6c0-0.3,0-0.7,0.1-1c0.6,0,1.3-0.1,1.9-0.3
				c0.7-0.2,1.4-0.5,2-0.9C7.3,4,7.8,3.5,8.2,2.9C8.5,2.5,8.6,2,8.6,1.5c0-0.4-0.2-0.8-0.4-1.1C7.8,0.1,7.4,0,6.9,0z M6.3,1.3
				c0,0.5-0.1,0.9-0.3,1.4C5.7,3.2,5.5,3.6,5.1,3.9C4.9,4.2,4.6,4.5,4.2,4.6C3.8,4.8,3.4,4.9,3,5c0.3-1.3,0.9-2.5,1.8-3.5
				c0.2-0.3,0.6-0.6,1-0.6c0.1,0,0.3,0,0.3,0.1C6.2,1,6.3,1.2,6.3,1.3L6.3,1.3z"/>
		</g>
		<g id="Group_601" transform="translate(41.603 4.575)">
			<path id="Path_360" class="st0" d="M9.7,6.6L9.7,6.6C9.5,6.9,9.4,7,9.4,7.1C9.2,7.4,8.9,7.7,8.7,7.9C8.6,8,8.5,8,8.4,7.9
				c0,0-0.1-0.1-0.1-0.1c0-0.2,0.1-0.5,0.2-0.7l1.3-4.2C9.9,2.4,10,1.9,10,1.4c0-0.4-0.1-0.8-0.4-1C9.4,0.1,9,0,8.7,0
				C8.2,0,7.8,0.1,7.4,0.4C6.8,0.7,6.3,1.2,5.8,1.7C5.3,2.4,4.7,3.2,4.2,3.9l1.1-3.8l0-0.1H4.6L1.3,0.6l0,0L1.1,1.1h0.1
				c0.2,0,0.4,0,0.7,0.1c0.1,0,0.2,0.1,0.2,0.2c0,0.1,0.1,0.2,0.1,0.2C2.1,2,2,2.4,1.9,2.9L0,9.3h2.7l0.8-3C4.2,4.9,5,3.6,6.1,2.5
				C6.4,2.2,6.7,2,7,2C7.1,2,7.1,2,7.2,2c0,0,0.1,0.1,0.1,0.1c0,0.2-0.1,0.4-0.1,0.6L5.9,7C5.7,7.4,5.7,7.9,5.6,8.3
				c0,0.3,0.1,0.6,0.4,0.8c0.3,0.2,0.6,0.4,1,0.3c1.1,0,2.1-0.8,3.1-2.5l0-0.1L9.7,6.6z"/>
		</g>
	</g>
	<g id="Group_605" transform="translate(276.397 533.72)">
		<g id="Group_603" transform="translate(3.289)">
			<path id="Path_361" class="st0" d="M9.1,36.4L9.1,36.4c5,0,9.1-4.1,9.1-9.1v-4h-7.5v-1.7h7.5V20h-7.5v-1.7h7.5v-1.6h-7.5v-1.7
				h7.5v-1.6h-7.5v-1.7h7.5V9.1c0-5-4.1-9.1-9.1-9.1l0,0C4.1,0,0,4.1,0,9.1l0,0v2.5h7.5v1.7H0v1.6h7.5v1.7H0v1.6h7.5V20H0v1.6h7.5
				v1.7H0v4C0,32.3,4.1,36.4,9.1,36.4L9.1,36.4z"/>
		</g>
		<g id="Group_604" transform="translate(0 24.942)">
			<path id="Path_362" class="st0" d="M24.8,2.8V0h-1.7v2.8c0,5.7-4.6,10.3-10.3,10.3H12C6.3,13.1,1.7,8.5,1.7,2.8V0H0v2.8
				C0,9,4.6,14.1,10.8,14.7v4.7c-2.6,0.2-5.2,1-7.5,2.2c-0.4,0.2-0.5,0.7-0.3,1C3.1,22.9,3.4,23,3.7,23h17.5c0.4,0,0.8-0.3,0.8-0.8
				c0-0.3-0.1-0.5-0.4-0.7c-2.3-1.3-4.9-2-7.5-2.2v-4.7C20.1,14.1,24.8,8.9,24.8,2.8z"/>
		</g>
	</g>
	<g id="Group_606" transform="translate(174.519 537.628)">
		<path id="Path_363" class="st0" d="M0,0h7.6v26.8h16.6V33H0V0z"/>
		<path id="Path_364" class="st0" d="M26.8,7.6h7.4V33h-7.4V7.6z"/>
		<path id="Path_365" class="st0" d="M65,7.6L54.3,33h-7.6L36,7.6h7.6l7,17.3l7.3-17.3H65z"/>
		<path id="Path_366" class="st0" d="M90.8,22.4H71.6c0.3,1.5,1.2,2.8,2.5,3.7c1.4,1,3.1,1.4,4.8,1.4c1.2,0,2.4-0.2,3.5-0.6
			c1.1-0.4,2-1.1,2.9-1.9l3.9,4.2c-2.4,2.7-5.9,4.1-10.5,4.1c-2.6,0.1-5.2-0.5-7.6-1.7c-2.1-1-3.9-2.6-5.1-4.6
			c-1.2-2-1.8-4.4-1.8-6.7c0-2.4,0.6-4.7,1.8-6.7c1.2-2,2.8-3.6,4.9-4.7c4.3-2.2,9.4-2.2,13.7-0.1c2,1,3.6,2.6,4.7,4.6
			c1.2,2.1,1.8,4.5,1.7,7C91,20.5,90.9,21.2,90.8,22.4z M73.6,14.2c-1.2,1-1.9,2.4-2.1,3.9H84c-0.2-1.5-0.9-2.9-2.1-3.8
			c-1.2-1-2.6-1.5-4.2-1.4C76.3,12.8,74.8,13.3,73.6,14.2L73.6,14.2z"/>
	</g>
	<g id="Group_607" transform="translate(312.543 545.079)">
		<path id="Rectangle_221" class="st1" d="M2.5,0h84.7c1.4,0,2.5,1.1,2.5,2.5v20.6c0,1.4-1.1,2.5-2.5,2.5H2.5
			c-1.4,0-2.5-1.1-2.5-2.5V2.5C0,1.1,1.1,0,2.5,0z"/>
	</g>
	<g id="Group_608" transform="translate(319.117 551.474)">
		<path id="Path_367" class="st0" d="M3.4,12.2c-1-0.5-1.9-1.3-2.5-2.3c-1.2-2.1-1.2-4.6,0-6.7c0.6-1,1.4-1.8,2.5-2.3
			c2.2-1.1,4.8-1.1,7.1,0c3.1,1.7,4.3,5.6,2.6,8.7c-0.6,1.1-1.5,2-2.6,2.6C8.2,13.3,5.6,13.3,3.4,12.2L3.4,12.2z M8.9,10
			c0.6-0.3,1.1-0.8,1.4-1.4c0.7-1.3,0.7-2.9,0-4.2C10,3.8,9.5,3.3,8.9,3c-1.3-0.7-2.8-0.7-4,0C4.3,3.3,3.8,3.8,3.5,4.4
			c-0.7,1.3-0.7,2.9,0,4.2C3.8,9.2,4.3,9.7,4.9,10C6.1,10.7,7.7,10.7,8.9,10L8.9,10z"/>
		<path id="Path_368" class="st0" d="M29.6,0.2v12.6h-2.4l-6.3-7.7v7.7H18V0.2h2.4l6.3,7.7V0.2H29.6z"/>
		<path id="Path_369" class="st0" d="M47.9,10.1h-5.9L41,12.8h-3l5.6-12.6h2.9l5.6,12.6h-3.1L47.9,10.1z M47,7.9l-2-4.8l-2,4.8H47z"
			/>
		<path id="Path_370" class="st0" d="M55.4,0.2h2.9v12.6h-2.9V0.2z"/>
		<path id="Path_371" class="st0" d="M71.4,12.8L69,9.3h-2.7v3.5h-2.9V0.2h5.5c1,0,2,0.2,2.9,0.6c1.6,0.7,2.6,2.3,2.6,4
			c0.1,1.7-1,3.3-2.6,4l2.8,4.1L71.4,12.8z M70.6,3.2c-0.6-0.4-1.3-0.6-2-0.6h-2.4V7h2.4c0.7,0.1,1.4-0.2,2-0.6
			C71.5,5.5,71.6,4.1,70.6,3.2L70.6,3.2L70.6,3.2z"/>
	</g>
	<g id="Group_611" transform="translate(252.458 517.856)" class="st2">
		<g id="Group_609">
			<path id="Path_372" class="st0" d="M36.4,4.4c13.5,0,25.8,7.6,31.8,19.7h4.9C64.3,3.9,40.8-5.5,20.5,3.3
				C11.4,7.2,4.1,14.4,0,23.4c1.6,0,3.1,0.2,4.6,0.6C10.7,12,22.9,4.4,36.4,4.4z"/>
		</g>
		<g id="Group_610" transform="translate(0.067 55.322)">
			<path id="Path_373" class="st0" d="M68.4,0C59.9,17.7,38.7,25.2,21,16.8C14,13.5,8.3,8,4.8,1.1C3.4,1.4,2.1,1.5,0.7,1.5
				c-0.2,0-0.5,0-0.7,0c9.2,20,33,28.8,53,19.6c9.1-4.2,16.3-11.7,20.2-21L68.4,0z"/>
		</g>
	</g>
	<circle id="Ellipse_39" class="st0" cx="205" cy="539.5" r="4"/>
</g>
</svg>
